<?xml version="1.0" encoding="UTF-8"?>
<svg width="960" height="320" viewBox="0 0 960 320" xmlns="http://www.w3.org/2000/svg">
  <defs>
    <linearGradient id="g1" x1="0" y1="0" x2="1" y2="1">
      <stop offset="0%" stop-color="#22D3EE"/>
      <stop offset="100%" stop-color="#2DD4BF"/>
    </linearGradient>
  </defs>
  <rect width="960" height="320" fill="transparent"/>
  <!-- Icon (scaled from previous) -->
  <g transform="translate(24,32) scale(1.1)">
    <rect x="40" y="40" width="176" height="176" rx="20" fill="#0F172A"/>
    <g fill="#0F172A">
      <rect x="64" y="28" width="16" height="20" rx="4"/>
      <rect x="96" y="28" width="16" height="20" rx="4"/>
      <rect x="128" y="28" width="16" height="20" rx="4"/>
      <rect x="160" y="28" width="16" height="20" rx="4"/>
      <rect x="64" y="208" width="16" height="20" rx="4"/>
      <rect x="96" y="208" width="16" height="20" rx="4"/>
      <rect x="128" y="208" width="16" height="20" rx="4"/>
      <rect x="160" y="208" width="16" height="20" rx="4"/>
      <rect x="28" y="64" width="20" height="16" rx="4"/>
      <rect x="28" y="96" width="20" height="16" rx="4"/>
      <rect x="28" y="128" width="20" height="16" rx="4"/>
      <rect x="28" y="160" width="20" height="16" rx="4"/>
      <rect x="208" y="64" width="20" height="16" rx="4"/>
      <rect x="208" y="96" width="20" height="16" rx="4"/>
      <rect x="208" y="128" width="20" height="16" rx="4"/>
      <rect x="208" y="160" width="20" height="16" rx="4"/>
    </g>
    <rect x="64" y="64" width="128" height="128" rx="12" fill="#0B122B" stroke="#2DD4BF" stroke-width="2"/>
    <path d="M72 128 L100 128 L110 100 L120 156 L136 92 L148 128 L184 128"
          stroke="url(#g1)" stroke-width="6" stroke-linecap="round" stroke-linejoin="round" fill="none"/>
  </g>
  <!-- Wordmark -->
  <g font-family="Poppins, Inter, system-ui, -apple-system, Segoe UI, Roboto, Ubuntu, Cantarell, Noto Sans, sans-serif" font-weight="700">
    <text x="300" y="140" font-size="88" fill="#0F172A" letter-spacing="3">DIMO</text>
    <text x="300" y="190" font-size="22" fill="#334155" font-weight="500">Diagnóstico y Monitoreo, sin drama</text>
  </g>
  <!-- Accent line -->
  <rect x="300" y="206" width="280" height="6" rx="3" fill="url(#g1)"/>
</svg>
